<?xml version="1.0" standalone="no"?>
<!DOCTYPE svg PUBLIC "-//W3C//DTD SVG 20010904//EN"
 "http://www.w3.org/TR/2001/REC-SVG-20010904/DTD/svg10.dtd">
<svg version="1.0" xmlns="http://www.w3.org/2000/svg"
 width="70.000000pt" height="70.000000pt" viewBox="0 0 70.000000 70.000000"
 preserveAspectRatio="xMidYMid meet">
<metadata>
Created by potrace 1.11, written by Peter Selinger 2001-2013
</metadata>
<g transform="translate(0.000000,70.000000) scale(0.100000,-0.100000)"
fill="#000000" stroke="none">
<path d="M0 350 l0 -350 350 0 350 0 0 350 0 350 -350 0 -350 0 0 -350z m276
136 l28 -23 35 24 c45 31 120 28 154 -6 20 -20 22 -34 25 -156 l4 -135 -36 0
-36 0 0 113 c0 130 -8 151 -60 149 -59 -1 -72 -25 -78 -151 l-5 -111 -27 0
-28 0 -3 115 c-5 129 -14 149 -70 147 -55 -1 -64 -19 -67 -147 l-4 -115 -34 0
-34 0 0 155 0 155 30 0 c20 0 30 -5 30 -15 0 -17 16 -20 25 -4 22 35 113 38
151 5z m374 -226 c23 -43 -17 -83 -60 -60 -22 12 -27 49 -8 68 19 19 56 14 68
-8z"/>
</g>
</svg>
